<?xml version="1.0" standalone="no"?>
<!DOCTYPE svg PUBLIC "-//W3C//DTD SVG 20010904//EN"
 "http://www.w3.org/TR/2001/REC-SVG-20010904/DTD/svg10.dtd">
<svg version="1.0" xmlns="http://www.w3.org/2000/svg"
 width="2126.000000pt" height="2126.000000pt" viewBox="0 0 2126.000000 2126.000000"
 preserveAspectRatio="xMidYMid meet">
<metadata>
Created by potrace 1.11, written by Peter Selinger 2001-2013
</metadata>
<g transform="translate(0.000000,2126.000000) scale(0.100000,-0.100000)"
fill="#000000" stroke="none">
<path d="M9337 16461 c-2 -3 -3 -557 -3 -1231 l1 -1225 35 -1 c145 -6 366 -20
435 -28 22 -2 69 -7 105 -11 36 -4 76 -8 90 -10 14 -2 73 -11 131 -19 111 -17
150 -24 294 -55 375 -81 695 -204 985 -377 36 -21 67 -41 70 -44 3 -3 34 -26
70 -52 303 -213 555 -531 720 -907 88 -201 170 -477 205 -690 3 -19 7 -37 9
-40 3 -5 9 -39 21 -131 2 -14 6 -54 10 -90 3 -35 8 -67 10 -70 10 -16 20 -293
20 -550 0 -257 -6 -423 -21 -550 -10 -97 -13 -118 -18 -160 -6 -42 -13 -87
-23 -135 -2 -11 -6 -36 -9 -55 -3 -19 -7 -43 -10 -52 -3 -10 -7 -30 -10 -45
-11 -65 -68 -267 -106 -372 -100 -284 -217 -500 -388 -715 -61 -78 -277 -296
-292 -296 -4 0 -17 -10 -30 -23 -69 -69 -351 -236 -543 -322 -195 -87 -519
-184 -770 -230 -49 -10 -97 -18 -105 -20 -8 -1 -40 -6 -70 -11 -30 -4 -57 -8
-60 -9 -7 -1 -114 -15 -165 -21 -65 -7 -135 -13 -220 -20 -44 -3 -100 -7 -125
-10 -25 -2 -249 -7 -497 -9 -363 -4 -453 -3 -454 7 -1 7 -2 337 -3 733 l-1
720 -1500 3 -1500 2 2 -1942 c1 -1069 2 -1959 2 -1979 l1 -36 1803 2 c991 2
1867 5 1947 9 455 17 516 20 690 31 205 12 331 21 430 31 30 3 80 7 110 9 30
3 78 7 105 10 90 11 119 14 175 20 30 4 66 8 80 10 14 2 50 6 80 10 30 4 134
20 230 36 96 16 191 32 210 35 19 3 38 8 41 10 4 2 24 6 45 10 22 3 84 17 139
31 55 14 107 26 115 28 251 59 697 224 985 365 281 138 440 232 692 407 347
241 706 575 967 898 31 39 64 79 73 90 9 11 52 69 95 130 43 60 82 115 86 120
4 6 42 64 83 130 124 197 224 386 341 645 52 113 171 426 183 480 1 3 9 30 19
60 19 61 76 257 81 280 2 8 12 51 23 95 25 98 79 367 87 432 3 27 10 71 15 98
5 28 12 75 15 105 4 30 8 66 10 80 2 14 6 54 9 90 3 36 8 81 10 100 3 19 7 80
11 135 3 55 8 132 11 170 7 100 7 592 0 705 -11 179 -18 275 -21 303 -2 15 -7
62 -10 105 -4 42 -9 84 -10 92 -2 9 -6 43 -10 75 -4 33 -9 69 -11 80 -2 10 -6
37 -9 60 -14 97 -46 273 -70 375 -3 14 -10 46 -15 73 -25 125 -153 561 -189
642 -5 11 -32 81 -61 155 -363 934 -1003 1718 -1856 2276 -469 307 -1031 550
-1592 689 -34 8 -89 22 -123 30 -62 15 -154 35 -264 55 -33 6 -69 13 -80 15
-28 5 -161 24 -215 30 -25 3 -52 7 -60 9 -8 3 -42 7 -75 11 -89 9 -145 15
-190 20 -52 6 -113 12 -200 20 -38 3 -88 8 -110 10 -22 3 -76 7 -120 10 -44 3
-107 7 -140 10 -196 15 -515 31 -768 40 -48 1 -89 0 -90 -4z"/>
<path d="M5923 15653 c-9 -3 -9 -1955 -1 -1969 4 -5 346 -9 855 -8 466 0 855
-2 864 -5 14 -5 71 -55 229 -201 15 -14 49 -45 76 -69 27 -24 88 -79 136 -123
l86 -80 0 -690 -1 -690 -41 -38 c-44 -41 -51 -47 -207 -190 -57 -52 -135 -125
-174 -162 -58 -56 -76 -68 -105 -68 -19 -1 -288 -2 -597 -2 -515 0 -563 -2
-564 -17 -5 -99 -2 -1296 3 -1304 5 -9 180 -12 668 -12 l660 0 0 565 0 564 34
31 c18 16 65 59 104 95 38 36 112 104 163 151 52 47 124 113 161 147 37 34 75
62 85 63 10 0 368 1 796 1 l777 0 0 882 0 881 -806 0 c-922 0 -805 -13 -927
101 -67 63 -220 202 -270 245 l-29 26 -2 939 -1 939 -982 0 c-541 0 -986 -1
-990 -2z"/>
</g>
</svg>
